<svg id="Raggruppa_14608" data-name="Raggruppa 14608" xmlns="http://www.w3.org/2000/svg" xmlns:xlink="http://www.w3.org/1999/xlink" width="114.114" height="136.694" viewBox="0 0 114.114 136.694">
  <defs>
    <clipPath id="clip-path">
      <rect id="Rettangolo_5718" data-name="Rettangolo 5718" width="114.114" height="136.694" fill="#0f5db0"/>
    </clipPath>
  </defs>
  <g id="Raggruppa_14172" data-name="Raggruppa 14172" clip-path="url(#clip-path)">
    <path id="Tracciato_48109" data-name="Tracciato 48109" d="M22.92,97.025a2.489,2.489,0,0,0-2.489,2.489v14.034a2.489,2.489,0,0,0,2.489,2.489H36.953a2.489,2.489,0,0,0,2.489-2.489V99.514a2.489,2.489,0,0,0-2.489-2.489Zm11.543,14.034H25.408V102h9.055Z" transform="translate(-0.089 -0.423)" fill="#0f5db0"/>
    <path id="Tracciato_48110" data-name="Tracciato 48110" d="M75.638,97.025H47.581a2.489,2.489,0,1,0,0,4.978H75.638a2.489,2.489,0,0,0,0-4.978" transform="translate(-0.196 -0.423)" fill="#0f5db0"/>
    <path id="Tracciato_48111" data-name="Tracciato 48111" d="M75.638,111.12H47.581a2.489,2.489,0,1,0,0,4.978H75.638a2.489,2.489,0,0,0,0-4.978" transform="translate(-0.196 -0.484)" fill="#0f5db0"/>
    <path id="Tracciato_48112" data-name="Tracciato 48112" d="M41.845,70.5a2.491,2.491,0,0,0-3.521-.022L27.753,80.921l-4.715-4.775a2.489,2.489,0,0,0-3.542,3.5l6.464,6.545a2.49,2.49,0,0,0,3.521.022L41.823,74.023a2.49,2.49,0,0,0,.022-3.521" transform="translate(-0.082 -0.304)" fill="#0f5db0"/>
    <path id="Tracciato_48113" data-name="Tracciato 48113" d="M68.805,68.837H47.533a2.489,2.489,0,0,0,0,4.978H68.805a2.489,2.489,0,0,0,0-4.978" transform="translate(-0.196 -0.3)" fill="#0f5db0"/>
    <path id="Tracciato_48114" data-name="Tracciato 48114" d="M47.533,87.909H68.805a2.489,2.489,0,1,0,0-4.978H47.533a2.489,2.489,0,1,0,0,4.978" transform="translate(-0.196 -0.361)" fill="#0f5db0"/>
    <path id="Tracciato_48115" data-name="Tracciato 48115" d="M36.9,59.673a2.489,2.489,0,0,0,2.489-2.489V43.151A2.489,2.489,0,0,0,36.9,40.662H22.872a2.489,2.489,0,0,0-2.489,2.489V57.184a2.489,2.489,0,0,0,2.489,2.489ZM25.361,45.64h9.054v9.054H25.361Z" transform="translate(-0.089 -0.177)" fill="#0f5db0"/>
    <path id="Tracciato_48116" data-name="Tracciato 48116" d="M75.59,40.662H47.533a2.489,2.489,0,1,0,0,4.978H75.59a2.489,2.489,0,0,0,0-4.978" transform="translate(-0.196 -0.177)" fill="#0f5db0"/>
    <path id="Tracciato_48117" data-name="Tracciato 48117" d="M78.079,57.245a2.489,2.489,0,0,0-2.489-2.489H47.533a2.489,2.489,0,1,0,0,4.978H75.59a2.489,2.489,0,0,0,2.489-2.489" transform="translate(-0.196 -0.239)" fill="#0f5db0"/>
    <path id="Tracciato_48118" data-name="Tracciato 48118" d="M94.089,99.874a2.489,2.489,0,0,0-2.489,2.489v29.353H4.978V18.922H27.439v7.444a2.489,2.489,0,0,0,2.489,2.489l38.3.006a2.489,2.489,0,0,0,2.489-2.488l0-7.451H91.6v34.8a2.489,2.489,0,0,0,4.978,0V16.433a2.489,2.489,0,0,0-2.489-2.489H70.722V11.6a2.49,2.49,0,0,0-2.488-2.49l-7.786,0A11.592,11.592,0,0,0,37.8,9.1H29.928a2.489,2.489,0,0,0-2.489,2.489v2.353H2.489A2.489,2.489,0,0,0,0,16.433V134.2a2.489,2.489,0,0,0,2.489,2.489h91.6a2.489,2.489,0,0,0,2.489-2.489V102.363a2.489,2.489,0,0,0-2.489-2.489M32.417,14.08h7.608a2.489,2.489,0,0,0,2.489-2.489,6.613,6.613,0,1,1,13.225,0v0a2.49,2.49,0,0,0,2.488,2.489l7.516,0v9.8l-33.324-.006Z" fill="#0f5db0"/>
    <path id="Tracciato_48119" data-name="Tracciato 48119" d="M111.956,75.853l-4.765-.013a12.865,12.865,0,0,0-1.967-4.786l3.377-3.36a2.489,2.489,0,1,0-3.512-3.53l-3.378,3.361a12.86,12.86,0,0,0-4.775-1.993l.012-4.765a2.489,2.489,0,0,0-2.483-2.5h-.006a2.49,2.49,0,0,0-2.489,2.483l-.012,4.765a12.838,12.838,0,0,0-4.787,1.967L83.811,64.11a2.489,2.489,0,1,0-3.53,3.51L83.642,71a12.852,12.852,0,0,0-1.992,4.775l-4.765-.012h-.006a2.489,2.489,0,0,0-.006,4.978l4.764.012A12.867,12.867,0,0,0,83.6,85.539L80.226,88.9a2.489,2.489,0,0,0,3.51,3.53l3.379-3.361a12.865,12.865,0,0,0,4.776,1.993l-.013,4.764a2.489,2.489,0,0,0,2.482,2.5h.007a2.489,2.489,0,0,0,2.489-2.482l.013-4.767a12.847,12.847,0,0,0,4.786-1.966l3.359,3.378a2.489,2.489,0,0,0,3.53-3.511l-3.36-3.378a12.847,12.847,0,0,0,1.992-4.776l4.765.013h.007a2.489,2.489,0,0,0,.007-4.978M94.413,86.328h-.021a8.03,8.03,0,1,1,5.715-13.7h0a8.033,8.033,0,0,1-5.694,13.7" transform="translate(-0.324 -0.254)" fill="#0f5db0"/>
  </g>
</svg>
