<svg xmlns="http://www.w3.org/2000/svg" width="129.41" height="119.08" viewBox="0 0 129.41 119.08">
  <g id="Raggruppa_14580" data-name="Raggruppa 14580" transform="translate(-197.9 -97.12)">
    <g id="Raggruppa_14592" data-name="Raggruppa 14592" transform="translate(197.9 97.12)">
      <path id="Tracciato_48382" data-name="Tracciato 48382" d="M317.271,130.449a9.824,9.824,0,0,0-3.538.67V113.945a9.248,9.248,0,0,0-9.237-9.237,8.745,8.745,0,0,0-2.81.464,9.206,9.206,0,0,0-17.423-2.851,9.04,9.04,0,0,0-3.7-.8,9.244,9.244,0,0,0-9.233,9.079,9.152,9.152,0,0,0-8.719,1.8,9.134,9.134,0,0,0-8.721-1.8,9.244,9.244,0,0,0-9.233-9.081,9.04,9.04,0,0,0-3.7.8,9.208,9.208,0,0,0-17.425,2.851,8.742,8.742,0,0,0-2.807-.464,9.247,9.247,0,0,0-9.235,9.237v17.174a9.83,9.83,0,0,0-3.536-.67A10.052,10.052,0,0,0,197.9,140.49v15.14c0,7.384,7.039,15.329,14.5,23.747,2.17,2.448,4.854,5.478,7.2,8.4v25.175a3.252,3.252,0,1,0,6.5,0V186.626l-.009-.2a3.315,3.315,0,0,0-.221-.956,3.1,3.1,0,0,0-.219-.434,2.241,2.241,0,0,0-.243-.414c-2.545-3.243-5.387-6.452-8.145-9.56-6.321-7.134-12.86-14.512-12.86-19.428V140.49a3.538,3.538,0,0,1,7.076,0v13.543a3.254,3.254,0,0,0,3.252,3.252,13,13,0,0,1,12.981,12.981,3.252,3.252,0,1,0,6.5,0,19.483,19.483,0,0,0-16.233-19.2v-37.12a2.731,2.731,0,1,1,5.463,0v29.195a3.252,3.252,0,0,0,6.5,0V106.357a2.734,2.734,0,0,1,5.467,0V137.8a18.607,18.607,0,0,0-3.033,10.174,20,20,0,0,0,6.063,14.18c7.117,7.115,20.4,19.795,21.91,21.241a3.315,3.315,0,0,0,4.516-.024c1.491-1.422,14.77-14.1,21.887-21.217a19.985,19.985,0,0,0,6.066-14.18A18.621,18.621,0,0,0,289.8,137.8V106.357a2.732,2.732,0,1,1,5.463,0v36.782a3.253,3.253,0,0,0,6.506,0V113.945a2.733,2.733,0,1,1,5.465,0v37.12a19.483,19.483,0,0,0-16.235,19.2,3.252,3.252,0,1,0,6.5,0,13,13,0,0,1,12.983-12.981,3.254,3.254,0,0,0,3.252-3.252V140.49a3.537,3.537,0,1,1,7.074,0v15.14c0,4.915-6.532,12.287-12.862,19.43-2.753,3.107-5.6,6.315-8.134,9.549a2.469,2.469,0,0,0-.286.49l-.184.364a3.294,3.294,0,0,0-.219.956l-.011,26.528a3.252,3.252,0,1,0,6.5,0V187.773c2.161-2.7,4.542-5.4,7.2-8.4,7.455-8.411,14.5-16.356,14.5-23.742V140.49a10.053,10.053,0,0,0-10.039-10.042m-39.446-19.693a2.734,2.734,0,1,1,5.467,0v20.911a19.083,19.083,0,0,0-5.467-2.1Zm-11.967,8.639a2.731,2.731,0,0,1,5.463,0v9.9a19.123,19.123,0,0,0-5.463,1.561Zm-11.971,0a2.734,2.734,0,0,1,5.467,0v11.457a18.773,18.773,0,0,0-5.467-1.557Zm-11.967-8.639a2.733,2.733,0,1,1,5.465,0v18.806a19.021,19.021,0,0,0-5.465,2.1Zm40.244,46.8c-5.359,5.355-14.258,13.913-19.558,18.988-5.32-5.092-14.243-13.673-19.561-18.988a13.548,13.548,0,0,1-4.158-9.569,12.265,12.265,0,0,1,3.681-8.726,12.585,12.585,0,0,1,17.74.022,3.255,3.255,0,0,0,4.6,0,12.58,12.58,0,0,1,9.443-3.638l.282.046.082-.028a12.538,12.538,0,0,1,7.93,3.6,12.273,12.273,0,0,1,3.681,8.726,13.548,13.548,0,0,1-4.158,9.569" transform="translate(-197.9 -97.12)" fill="#0f5db0"/>
      <path id="Tracciato_48383" data-name="Tracciato 48383" d="M230.16,140.965a3.256,3.256,0,0,0-3.252,3.252v17.527a3.252,3.252,0,1,0,6.5,0V144.217a3.256,3.256,0,0,0-3.252-3.252" transform="translate(-164.023 -45.915)" fill="#0f5db0"/>
    </g>
  </g>
</svg>
