<svg id="Raggruppa_14662" data-name="Raggruppa 14662" xmlns="http://www.w3.org/2000/svg" xmlns:xlink="http://www.w3.org/1999/xlink" width="133.75" height="124.087" viewBox="0 0 133.75 124.087">
  <defs>
    <clipPath id="clip-path">
      <rect id="Rettangolo_5965" data-name="Rettangolo 5965" width="133.75" height="124.087" fill="none"/>
    </clipPath>
  </defs>
  <g id="Raggruppa_14661" data-name="Raggruppa 14661" clip-path="url(#clip-path)">
    <path id="Tracciato_48503" data-name="Tracciato 48503" d="M159.376,121.675a6.473,6.473,0,0,0,0-8.779l-1.943-2.116a1.447,1.447,0,0,1-.346-1.283l.62-2.81a6.468,6.468,0,0,0-4.39-7.6l-2.738-.868a1.46,1.46,0,0,1-.94-.939l-.866-2.739a6.462,6.462,0,0,0-7.6-4.39l-2.81.62a1.424,1.424,0,0,1-1.281-.345l-2.122-1.938a6.473,6.473,0,0,0-8.779,0l-2.124,1.94a1.429,1.429,0,0,1-1.278.343l-2.805-.62a6.468,6.468,0,0,0-7.6,4.389l-.865,2.738a1.46,1.46,0,0,1-.939.94l-2.739.868a6.468,6.468,0,0,0-4.391,7.6l.62,2.8a1.44,1.44,0,0,1-.341,1.282l-1.943,2.123a6.473,6.473,0,0,0,0,8.779l1.939,2.12a1.438,1.438,0,0,1,.343,1.281l-.62,2.809a6.468,6.468,0,0,0,4.391,7.6l2.739.872a1.444,1.444,0,0,1,.939.934l.866,2.736a6.468,6.468,0,0,0,7.6,4.391l2.805-.62a1.445,1.445,0,0,1,1.282.343l2.119,1.942a6.473,6.473,0,0,0,8.775,0l2.126-1.942a1.419,1.419,0,0,1,1.277-.343l2.81.62a6.454,6.454,0,0,0,7.6-4.391l.866-2.738a1.452,1.452,0,0,1,.938-.937l2.741-.868a6.468,6.468,0,0,0,4.39-7.6l-.62-2.807a1.442,1.442,0,0,1,.349-1.278Zm-3.741-3.421-1.943,2.124a6.516,6.516,0,0,0-1.55,5.788l.62,2.807a1.432,1.432,0,0,1-.969,1.682l-2.741.865a6.513,6.513,0,0,0-4.239,4.239l-.872,2.741a1.422,1.422,0,0,1-1.677.969l-2.811-.616a6.491,6.491,0,0,0-5.784,1.554l-2.121,1.935a1.432,1.432,0,0,1-1.943,0l-2.121-1.939a6.508,6.508,0,0,0-4.393-1.7,6.43,6.43,0,0,0-1.4.15l-2.809.62a1.435,1.435,0,0,1-1.68-.969l-.866-2.744a6.505,6.505,0,0,0-4.239-4.233l-2.741-.867a1.432,1.432,0,0,1-.969-1.682l.62-2.81a6.516,6.516,0,0,0-1.552-5.786l-1.939-2.121a1.429,1.429,0,0,1,0-1.94l1.946-2.123a6.522,6.522,0,0,0,1.546-5.789l-.62-2.809a1.427,1.427,0,0,1,.969-1.679l2.744-.868a6.521,6.521,0,0,0,4.236-4.238l.866-2.741a1.433,1.433,0,0,1,1.681-.965l2.809.618a6.387,6.387,0,0,0,1.4.152,6.51,6.51,0,0,0,4.391-1.7v0L129.6,92.23a1.429,1.429,0,0,1,1.943,0l2.123,1.938a6.512,6.512,0,0,0,5.788,1.552l2.812-.618a1.417,1.417,0,0,1,1.677.968l.868,2.744a6.522,6.522,0,0,0,4.239,4.235l2.741.868a1.427,1.427,0,0,1,.969,1.679l-.62,2.809A6.526,6.526,0,0,0,153.7,114.2l1.939,2.118a1.43,1.43,0,0,1,0,1.94" transform="translate(-27.342 -23.711)" fill="#0f5db0"/>
    <path id="Tracciato_48504" data-name="Tracciato 48504" d="M134.664,101.739a19.661,19.661,0,0,0-19.635,19.637h0a19.637,19.637,0,1,0,19.637-19.637m0,34.206a14.569,14.569,0,1,1,14.568-14.569,14.586,14.586,0,0,1-14.568,14.569" transform="translate(-31.431 -27.8)" fill="#0f5db0"/>
    <path id="Tracciato_48505" data-name="Tracciato 48505" d="M145.17,118.282l-8.948,8.951-5.055-5.055a2.534,2.534,0,1,0-3.584,3.583l6.845,6.845a2.53,2.53,0,0,0,3.578,0l0,0,10.745-10.741a2.534,2.534,0,1,0-3.585-3.583" transform="translate(-34.66 -32.118)" fill="#0f5db0"/>
    <path id="Tracciato_48506" data-name="Tracciato 48506" d="M77.431,118.049H5.871V30.8H27.818a2.937,2.937,0,0,0,2.932-2.935v-22H96.264l-.037,48.715a2.933,2.933,0,0,0,5.866,0l.042-51.649a2.98,2.98,0,0,0-.86-2.077A2.914,2.914,0,0,0,99.2,0H27.689a2.922,2.922,0,0,0-2.077.858L.858,25.612A2.916,2.916,0,0,0,0,27.689v93.3a2.94,2.94,0,0,0,2.935,2.935h74.5a2.935,2.935,0,1,0,0-5.871M24.881,9.892V24.935H9.837Z" transform="translate(0 0)" fill="#0f5db0"/>
    <path id="Tracciato_48507" data-name="Tracciato 48507" d="M96.093,31.661H57.165a2.933,2.933,0,0,0,0,5.866H96.093a2.933,2.933,0,0,0,0-5.866" transform="translate(-14.819 -8.651)" fill="#0f5db0"/>
    <path id="Tracciato_48508" data-name="Tracciato 48508" d="M89.623,57.754a2.933,2.933,0,0,0-2.933-2.932H22.752a2.933,2.933,0,0,0,0,5.866H86.69a2.934,2.934,0,0,0,2.933-2.933" transform="translate(-5.416 -14.98)" fill="#0f5db0"/>
    <path id="Tracciato_48509" data-name="Tracciato 48509" d="M22.752,83.85h47.7a2.933,2.933,0,0,0,0-5.866h-47.7a2.933,2.933,0,1,0,0,5.866" transform="translate(-5.416 -21.309)" fill="#0f5db0"/>
    <path id="Tracciato_48510" data-name="Tracciato 48510" d="M70.526,99.515H22.735a2.934,2.934,0,0,0-.092,5.867H70.434a2.934,2.934,0,0,0,.092-5.867" transform="translate(-5.398 -27.192)" fill="#0f5db0"/>
    <path id="Tracciato_48511" data-name="Tracciato 48511" d="M70.454,122.673h-47.7a2.935,2.935,0,0,0,0,5.871h47.7a2.935,2.935,0,0,0,0-5.871" transform="translate(-5.415 -33.521)" fill="#0f5db0"/>
  </g>
</svg>
