<svg id="Raggruppa_14201" data-name="Raggruppa 14201" xmlns="http://www.w3.org/2000/svg" xmlns:xlink="http://www.w3.org/1999/xlink" width="112.91" height="122.091" viewBox="0 0 112.91 122.091">
  <defs>
    <clipPath id="clip-path">
      <rect id="Rettangolo_5616" data-name="Rettangolo 5616" width="112.91" height="122.091" fill="#0f5db0"/>
    </clipPath>
  </defs>
  <g id="Raggruppa_13990" data-name="Raggruppa 13990" transform="translate(0 0)" clip-path="url(#clip-path)">
    <path id="Tracciato_47938" data-name="Tracciato 47938" d="M66.524,27.75h-.015l-15.488.061a3.8,3.8,0,0,0,.013,7.606h.015l15.49-.061a3.8,3.8,0,0,0-.015-7.606" transform="translate(42.583 25.019)" fill="#0f5db0"/>
    <path id="Tracciato_47939" data-name="Tracciato 47939" d="M46.534,28.062a3.8,3.8,0,0,0,3.632,2.687,3.753,3.753,0,0,0,1.12-.171l12.866-3.957a3.8,3.8,0,0,0-2.236-7.268L49.05,23.31a3.8,3.8,0,0,0-2.516,4.752" transform="translate(41.802 17.294)" fill="#0f5db0"/>
    <path id="Tracciato_47940" data-name="Tracciato 47940" d="M64.221,38.295,51.294,34.431a3.8,3.8,0,0,0-2.179,7.287l12.927,3.864a3.749,3.749,0,0,0,1.092.162,3.8,3.8,0,0,0,1.088-7.448" transform="translate(41.834 30.894)" fill="#0f5db0"/>
    <path id="Tracciato_47941" data-name="Tracciato 47941" d="M21.806,18.182a3.8,3.8,0,0,0-3.8,3.8V58.341a3.8,3.8,0,0,0,7.606,0V53.677l37.634,7.46a4.968,4.968,0,0,0,5.935-4.891l-.129-32.207A4.969,4.969,0,0,0,63.063,19.2L25.609,27.047V21.985a3.8,3.8,0,0,0-3.8-3.8m39.65,9.128.1,25.738-35.89-7.114-.046-11.119Z" transform="translate(16.231 16.392)" fill="#0f5db0"/>
    <path id="Tracciato_47942" data-name="Tracciato 47942" d="M93.086,79a3.8,3.8,0,0,0-3.8,3.8v9.706a4.7,4.7,0,0,1-4.7,4.7h-59.7V7.606H84.544a4.744,4.744,0,0,1,4.739,4.739V31.3a3.8,3.8,0,1,0,7.606,0V12.345A12.358,12.358,0,0,0,84.544,0H12.49A12.5,12.5,0,0,0,0,12.491v97.156a12.458,12.458,0,0,0,12.444,12.444H80.306a12.748,12.748,0,0,0,12.735-12.733,3.8,3.8,0,0,0-7.606,0,5.134,5.134,0,0,1-5.129,5.127H12.444a4.838,4.838,0,1,1,0-9.675h72.14a12.317,12.317,0,0,0,12.305-12.3V82.8a3.8,3.8,0,0,0-3.8-3.8M7.606,98.182V12.491A4.89,4.89,0,0,1,12.49,7.606h4.792V97.2H12.444a12.385,12.385,0,0,0-4.838.979" transform="translate(0 0)" fill="#0f5db0"/>
  </g>
</svg>
