<svg id="Raggruppa_14651" data-name="Raggruppa 14651" xmlns="http://www.w3.org/2000/svg" xmlns:xlink="http://www.w3.org/1999/xlink" width="133.75" height="113.49" viewBox="0 0 133.75 113.49">
  <defs>
    <clipPath id="clip-path">
      <rect id="Rettangolo_5942" data-name="Rettangolo 5942" width="133.75" height="113.49" fill="#0f5db0"/>
    </clipPath>
  </defs>
  <g id="Raggruppa_14594" data-name="Raggruppa 14594" clip-path="url(#clip-path)">
    <path id="Tracciato_48389" data-name="Tracciato 48389" d="M316.927,31.129l-.049-2.507-8,4.617v3.854l3.32,1.917,8-4.619-2.3-1.385h0a2.021,2.021,0,0,1-.679-.671l-.013-.021-.013-.022-.014-.025-.009-.016-.016-.03-.007-.013a2.032,2.032,0,0,1-.209-.644h0l-.005-.037,0-.014,0-.036,0-.011a2.014,2.014,0,0,1-.005-.336m3.932-6,.1,4.981,4.194,2.531a2.032,2.032,0,0,1,.053,3.549l-.008-.006L313.38,43a2.032,2.032,0,0,1-2.195.1l0-.007L306,40.1a2.032,2.032,0,0,1-1.187-1.848V32.109a2.031,2.031,0,0,1,1.016-1.793l.008.006L317.659,23.5a2.032,2.032,0,0,1,3.207,1.618Z" transform="translate(-192.468 -14.602)" fill="#0f5db0"/>
    <path id="Tracciato_48390" data-name="Tracciato 48390" d="M209.645,62.433a2.023,2.023,0,1,0-2.016-3.507L150.26,92.048a2.023,2.023,0,1,0,2.016,3.507Z" transform="translate(-94.236 -37.037)" fill="#0f5db0"/>
    <path id="Tracciato_48391" data-name="Tracciato 48391" d="M56.745,0A56.745,56.745,0,1,1,16.62,16.621,56.568,56.568,0,0,1,56.745,0M93.868,19.623a52.5,52.5,0,1,0,15.376,37.123A52.336,52.336,0,0,0,93.868,19.623" transform="translate(0 -0.001)" fill="#0f5db0"/>
    <path id="Tracciato_48392" data-name="Tracciato 48392" d="M100.264,68.921A31.343,31.343,0,1,1,78.1,78.1a31.246,31.246,0,0,1,22.162-9.18M119.423,81.1a27.1,27.1,0,1,0,7.936,19.16,27.012,27.012,0,0,0-7.936-19.16" transform="translate(-43.518 -43.518)" fill="#0f5db0"/>
    <path id="Tracciato_48393" data-name="Tracciato 48393" d="M125.689,109.188a16.5,16.5,0,1,1-11.668,4.833,16.448,16.448,0,0,1,11.668-4.833m8.666,7.835a12.256,12.256,0,1,0,3.589,8.666,12.217,12.217,0,0,0-3.589-8.666" transform="translate(-68.944 -68.944)" fill="#0f5db0"/>
    <path id="Tracciato_48394" data-name="Tracciato 48394" d="M76.248,30.888A45.361,45.361,0,1,1,44.173,44.174,45.221,45.221,0,0,1,76.248,30.888m29.073,16.288a41.115,41.115,0,1,0,12.042,29.073,40.989,40.989,0,0,0-12.042-29.073" transform="translate(-19.503 -19.503)" fill="#0f5db0"/>
  </g>
</svg>
