<svg xmlns="http://www.w3.org/2000/svg" xmlns:xlink="http://www.w3.org/1999/xlink" width="61.331" height="56.573" viewBox="0 0 61.331 56.573">
  <defs>
    <clipPath id="clip-path">
      <rect id="Rettangolo_6012" data-name="Rettangolo 6012" width="61.331" height="56.573" transform="translate(0 -0.001)" fill="#0b5db0"/>
    </clipPath>
  </defs>
  <g id="Raggruppa_14705" data-name="Raggruppa 14705" transform="translate(0 0)">
    <g id="Raggruppa_14705-2" data-name="Raggruppa 14705" clip-path="url(#clip-path)">
      <path id="Tracciato_48625" data-name="Tracciato 48625" d="M48.137,32.008v-1.6h1.6l6.542,6.542-1.6,1.6ZM2.709,17.543A1.129,1.129,0,1,1,3.84,18.67h0a1.13,1.13,0,0,1-1.129-1.127m26.078,7.394a9.816,9.816,0,1,1,13.956-.086c-.03.026-.064.047-.092.076a.951.951,0,0,0-.076.092,9.806,9.806,0,0,1-13.789-.079M15.837,8.411a1.129,1.129,0,0,1,2.258-.062v.062a1.108,1.108,0,0,1-.122.5c0,.006-.008.011-.011.017v.011a1.122,1.122,0,0,1-2.121-.527M49.339,0a1.353,1.353,0,0,0-.086,2.7l3.107.242-7.706,6.3c-.027-.028-.051-.06-.078-.087a12.511,12.511,0,0,0-19.333,2.013l-4.474-2.31a3.833,3.833,0,1,0-7.394.891l-7.27,4.715a3.837,3.837,0,1,0,1.476,2.266l7.6-4.929a3.808,3.808,0,0,0,4.347-.544l4.5,2.322A12.513,12.513,0,0,0,43.566,27.752l1.867,1.867v2.949a1.348,1.348,0,0,0,.4.955l7.894,7.9a1.353,1.353,0,0,0,1.913,0l.8-.8,2.553,2.553a1.352,1.352,0,0,0,1.986-1.835c-.024-.026-.049-.05-.074-.074l-2.553-2.555.8-.8a1.351,1.351,0,0,0,0-1.911h0L51.25,28.1a1.348,1.348,0,0,0-.955-.4h-2.95l-1.867-1.868a12.483,12.483,0,0,0,.85-14.477l7.814-6.383L53.9,8.129a1.353,1.353,0,0,0,1.243,1.453h.107a1.353,1.353,0,0,0,1.346-1.243l.5-6.388A1.354,1.354,0,0,0,55.847.5L49.462,0h-.123Z" fill="#0b5db0"/>
      <path id="Tracciato_48626" data-name="Tracciato 48626" d="M4.313,32.973V49.8a1.566,1.566,0,1,0,3.132,0V32.973a1.566,1.566,0,1,0-3.132,0" fill="#0b5db0"/>
      <path id="Tracciato_48627" data-name="Tracciato 48627" d="M9.994,27.737V49.8a1.566,1.566,0,0,0,3.133,0V27.737a1.566,1.566,0,0,0-3.133,0" fill="#0b5db0"/>
      <path id="Tracciato_48628" data-name="Tracciato 48628" d="M15.676,23.369V49.8a1.566,1.566,0,1,0,3.132,0V23.369a1.566,1.566,0,0,0-3.132,0" fill="#0b5db0"/>
      <path id="Tracciato_48629" data-name="Tracciato 48629" d="M21.357,29.662V49.8a1.567,1.567,0,1,0,3.134,0V29.662a1.567,1.567,0,1,0-3.134,0" fill="#0b5db0"/>
      <path id="Tracciato_48630" data-name="Tracciato 48630" d="M27.039,35.142V49.8a1.567,1.567,0,0,0,3.133,0V35.142a1.567,1.567,0,0,0-3.133,0" fill="#0b5db0"/>
      <path id="Tracciato_48631" data-name="Tracciato 48631" d="M32.721,37.479V49.8a1.566,1.566,0,0,0,3.133,0V37.479a1.566,1.566,0,0,0-3.133,0" fill="#0b5db0"/>
      <path id="Tracciato_48632" data-name="Tracciato 48632" d="M38.4,36.73V49.8a1.566,1.566,0,0,0,3.133,0V36.73a1.566,1.566,0,1,0-3.133,0" fill="#0b5db0"/>
      <path id="Tracciato_48633" data-name="Tracciato 48633" d="M45.65,39.406h0a1.566,1.566,0,0,1,1.566,1.566V49.8a1.566,1.566,0,1,1-3.132,0v-8.83a1.566,1.566,0,0,1,1.566-1.566" fill="#0b5db0"/>
      <path id="Tracciato_48634" data-name="Tracciato 48634" d="M51.315,43.823h0a1.567,1.567,0,0,1,1.567,1.566V49.8a1.566,1.566,0,1,1-3.133,0V45.389a1.566,1.566,0,0,1,1.566-1.566" fill="#0b5db0"/>
      <path id="Tracciato_48635" data-name="Tracciato 48635" d="M1.566,53.439a1.566,1.566,0,0,0,0,3.133H55.644a1.566,1.566,0,1,0,0-3.133Z" fill="#0b5db0"/>
    </g>
  </g>
</svg>
