<svg xmlns="http://www.w3.org/2000/svg" xmlns:xlink="http://www.w3.org/1999/xlink" width="133.75" height="130.31" viewBox="0 0 133.75 130.31">
  <defs>
    <clipPath id="clip-path">
      <rect id="Rettangolo_5964" data-name="Rettangolo 5964" width="133.75" height="130.31" fill="none"/>
    </clipPath>
  </defs>
  <g id="Raggruppa_14659" data-name="Raggruppa 14659" clip-path="url(#clip-path)">
    <path id="Tracciato_48498" data-name="Tracciato 48498" d="M33.905,33.519H74.347a3.827,3.827,0,1,0,.144-7.652c-.048,0-.1,0-.144,0H33.905a3.827,3.827,0,1,0-.144,7.652c.048,0,.1,0,.144,0" transform="translate(10.871 9.371)" fill="#0f5db0"/>
    <path id="Tracciato_48499" data-name="Tracciato 48499" d="M85.155,43.466a3.828,3.828,0,0,0-3.753-3.9H14.831a3.827,3.827,0,0,0-.144,7.652c.049,0,.1,0,.144,0H81.256a3.825,3.825,0,0,0,3.9-3.753" transform="translate(3.961 14.335)" fill="#0f5db0"/>
    <path id="Tracciato_48500" data-name="Tracciato 48500" d="M14.812,53.267a3.828,3.828,0,0,0,0,7.656h49.56a3.828,3.828,0,0,0,0-7.656Z" transform="translate(3.981 19.298)" fill="#0f5db0"/>
    <path id="Tracciato_48501" data-name="Tracciato 48501" d="M132.336,67.3a3.856,3.856,0,0,0-3.2-.775c-13.688,2.87-19.684-1.343-21.507-3.111l.04-59.574A3.825,3.825,0,0,0,103.85.005h-.008L29.548,0a3.859,3.859,0,0,0-2.706,1.121L1.121,26.841A3.851,3.851,0,0,0,0,29.547v96.937a3.832,3.832,0,0,0,3.829,3.827h77.4a3.827,3.827,0,0,0,0-7.655H7.656V33.561h22.02a3.832,3.832,0,0,0,3.829-3.825V7.662h66.506l-.038,55.81c-1.849,1.746-7.873,5.884-21.425,3.049a3.828,3.828,0,0,0-4.615,3.745v32.141a15.363,15.363,0,0,0,4.151,10.573c5.07,5.389,15.162,14.431,25.757,14.431s20.688-9.042,25.76-14.431a15.356,15.356,0,0,0,4.15-10.573V70.266a3.815,3.815,0,0,0-1.414-2.97M25.85,25.914H12.879L25.85,12.942Zm100.244,76.493a7.716,7.716,0,0,1-2.071,5.325c-3.406,3.614-12.171,12.021-20.184,12.021s-16.782-8.4-20.181-12.02a7.733,7.733,0,0,1-2.072-5.328V74.783a44.69,44.69,0,0,0,5.431.342c8.633,0,13.979-2.78,16.823-4.94h0c3.4,2.58,10.364,6.061,22.253,4.6Z" fill="#0f5db0"/>
    <path id="Tracciato_48502" data-name="Tracciato 48502" d="M94.459,60.713l-16,16-9.309-7.546a3.827,3.827,0,1,0-4.82,5.945l11.988,9.713a3.825,3.825,0,0,0,5.117-.272L99.872,66.119A3.827,3.827,0,1,0,94.461,60.7Z" transform="translate(22.793 21.587)" fill="#0f5db0"/>
  </g>
</svg>
