<svg xmlns="http://www.w3.org/2000/svg" xmlns:xlink="http://www.w3.org/1999/xlink" width="133.55" height="141.974" viewBox="0 0 133.55 141.974">
  <defs>
    <clipPath id="clip-path">
      <rect id="Rettangolo_5963" data-name="Rettangolo 5963" width="133.55" height="141.974" fill="none"/>
    </clipPath>
  </defs>
  <g id="Raggruppa_14658" data-name="Raggruppa 14658" transform="translate(0 0)">
    <g id="Raggruppa_14657" data-name="Raggruppa 14657" transform="translate(0 0)" clip-path="url(#clip-path)">
      <path id="Tracciato_48492" data-name="Tracciato 48492" d="M61.643,25.609A31.3,31.3,0,0,0,30.756,51.58L28,73.5a2.485,2.485,0,0,0,2.151,2.774,2.734,2.734,0,0,0,.314.02h6.925v12.6a2.49,2.49,0,0,0,2.485,2.485H54.44V97.94a2.485,2.485,0,0,0,4.97,0V88.886A2.483,2.483,0,0,0,56.925,86.4H42.366V73.807a2.483,2.483,0,0,0-2.485-2.485h-6.6l2.382-19a26.326,26.326,0,0,1,52.25,4.636v45.313a2.485,2.485,0,0,0,4.97,0V56.952A31.294,31.294,0,0,0,61.643,25.609" transform="translate(40.663 37.212)" fill="#0f5db0"/>
      <path id="Tracciato_48493" data-name="Tracciato 48493" d="M58.192,57.846a10.777,10.777,0,0,0,10.656-9.29H88.041L98.908,61.82a2.6,2.6,0,0,0,1.977.91,2.49,2.49,0,0,0,2.485-2.485V48.559h5.419A10.793,10.793,0,0,0,119.558,37.79V10.774A10.792,10.792,0,0,0,108.8,0L62.144,0A10.791,10.791,0,0,0,51.49,9.265H21.982A10.794,10.794,0,0,0,11.211,20.044V47.077A10.792,10.792,0,0,0,21.982,57.846h3.113v5.694A30.46,30.46,0,0,0,16,66.856,31.352,31.352,0,0,0,0,94.173v45.316a2.485,2.485,0,0,0,4.97,0V94.173A26.381,26.381,0,0,1,18.435,71.2a26.8,26.8,0,0,1,25.124-.319A26.132,26.132,0,0,1,57.188,89.414l2.4,19.134h-6.6a2.486,2.486,0,0,0-2.485,2.485v12.594H35.952a2.485,2.485,0,0,0-2.485,2.465v9.054a2.485,2.485,0,0,0,4.97,0v-6.562H52.986a2.486,2.486,0,0,0,2.495-2.475V113.5h6.927a2.482,2.482,0,0,0,2.485-2.48,2.664,2.664,0,0,0-.02-.314L62.1,88.664A31,31,0,0,0,34.1,63.081L40.2,57.846ZM62.144,4.97v0H108.8a5.8,5.8,0,0,1,5.8,5.8V37.782a5.8,5.8,0,0,1-5.8,5.8h-7.906a2.49,2.49,0,0,0-2.485,2.485v7.293L91.151,44.5a2.483,2.483,0,0,0-1.923-.91H68.973V20.039A10.794,10.794,0,0,0,58.2,9.265H56.565a5.794,5.794,0,0,1,5.578-4.3m-24.467,48.5L30.072,60V55.358a2.486,2.486,0,0,0-2.487-2.483h-5.6a5.806,5.806,0,0,1-5.792-5.8V20.044a5.805,5.805,0,0,1,5.792-5.811H58.2A5.8,5.8,0,0,1,64,20.042V47.077a5.807,5.807,0,0,1-5.8,5.8H39.3a2.5,2.5,0,0,0-1.619.6" transform="translate(0 0)" fill="#0f5db0"/>
      <path id="Tracciato_48494" data-name="Tracciato 48494" d="M17.327,9.344a7.972,7.972,0,0,0-4.234,7.04,2.485,2.485,0,0,0,4.97,0v0a3,3,0,1,1,4.416,2.654,7.606,7.606,0,0,0-3.888,6.807,2.485,2.485,0,0,0,4.97,0,2.7,2.7,0,0,1,1.249-2.416A7.975,7.975,0,0,0,17.327,9.344" transform="translate(19.025 12.221)" fill="#0f5db0"/>
      <path id="Tracciato_48495" data-name="Tracciato 48495" d="M17.819,17.745a2.483,2.483,0,0,0-2.485,2.485v2a2.485,2.485,0,0,0,4.97,0v-2a2.485,2.485,0,0,0-2.485-2.485" transform="translate(22.281 25.785)" fill="#0f5db0"/>
      <path id="Tracciato_48496" data-name="Tracciato 48496" d="M40.188,13.381h4.543a2.485,2.485,0,1,0,0-4.97H40.188a2.485,2.485,0,1,0,0,4.97" transform="translate(54.785 12.222)" fill="#0f5db0"/>
      <path id="Tracciato_48497" data-name="Tracciato 48497" d="M34.459,13.381h4.536a2.485,2.485,0,0,0,0-4.97H34.459a2.485,2.485,0,0,0,0,4.97" transform="translate(46.46 12.222)" fill="#0f5db0"/>
    </g>
  </g>
</svg>
