<svg xmlns="http://www.w3.org/2000/svg" width="147.5" height="147.503" viewBox="0 0 147.5 147.503">
  <path id="Fill_1" data-name="Fill 1" d="M134.292,146.5H12.208A12.222,12.222,0,0,1,0,134.294V126.97a2.445,2.445,0,0,1,2.442-2.442H4.884V48.835A12.222,12.222,0,0,1,17.092,36.627H34.185V29.3a2.438,2.438,0,0,1,1.009-1.952l-.013-.02L71.805.472a2.446,2.446,0,0,1,2.889,0L111.32,27.331l-.012.02a2.44,2.44,0,0,1,1.011,1.951v7.324h17.091a12.222,12.222,0,0,1,12.208,12.208v75.693h2.442a2.444,2.444,0,0,1,2.44,2.442v7.324A12.222,12.222,0,0,1,134.292,146.5ZM4.884,129.412v4.882a7.333,7.333,0,0,0,7.324,7.326H134.292a7.334,7.334,0,0,0,7.326-7.326v-4.882H89.925a7.347,7.347,0,0,1-6.907,4.882H63.484a7.342,7.342,0,0,1-6.907-4.882Zm12.208-87.9a7.333,7.333,0,0,0-7.324,7.324v75.693H58.6a2.444,2.444,0,0,1,2.44,2.442,2.445,2.445,0,0,0,2.442,2.442H83.018a2.444,2.444,0,0,0,2.44-2.442,2.445,2.445,0,0,1,2.442-2.442h48.835V48.835a7.333,7.333,0,0,0-7.326-7.324H112.319v4.882h17.091a2.445,2.445,0,0,1,2.442,2.442V117.2a2.444,2.444,0,0,1-2.442,2.44H17.092a2.444,2.444,0,0,1-2.442-2.44V48.835a2.445,2.445,0,0,1,2.442-2.442H34.185V41.511Zm2.442,9.766v63.484H126.967V51.277H112.319V56.16a9.767,9.767,0,0,1,0,19.534H34.185a9.767,9.767,0,1,1,0-19.534V51.277ZM39.067,33.864V70.81h68.368V33.864L74.6,55.751a2.436,2.436,0,0,1-2.709,0Zm-4.882,27.18a4.883,4.883,0,1,0,0,9.766Zm78.134,0V70.81a4.883,4.883,0,0,0,0-9.766Zm-58.6-29.3v6.021L73.25,50.784l19.534-13.02V31.743Zm-2.442-4.882H95.226a2.444,2.444,0,0,1,2.44,2.442v5.2l7.951-5.3L73.251,5.471,40.884,29.206l7.949,5.3V29.3A2.445,2.445,0,0,1,51.275,26.861ZM95.226,105H90.342v-4.884h4.884V105Zm-9.768,0H80.576v-4.884h4.882V105Zm-9.765,0H70.81v-4.884h4.884V105Zm-9.768,0H61.042v-4.884h4.884V105Zm-9.766,0H51.275v-4.884h4.884V105Zm29.3-9.768H80.576V90.345h4.882v4.882Zm-9.765,0H70.81V90.345h4.884v4.882Zm-9.768,0H61.042V90.345h4.884v4.882Zm9.768-9.766H70.81V80.577h4.884v4.884Z" transform="translate(0.5 0.5)" fill="#0f5db0" stroke="rgba(0,0,0,0)" stroke-width="1"/>
</svg>
