<svg id="Raggruppa_14670" data-name="Raggruppa 14670" xmlns="http://www.w3.org/2000/svg" xmlns:xlink="http://www.w3.org/1999/xlink" width="133.75" height="133.748" viewBox="0 0 133.75 133.748">
  <defs>
    <clipPath id="clip-path">
      <rect id="Rettangolo_5969" data-name="Rettangolo 5969" width="133.75" height="133.748" fill="none"/>
    </clipPath>
  </defs>
  <g id="Raggruppa_14669" data-name="Raggruppa 14669" transform="translate(0 0)" clip-path="url(#clip-path)">
    <path id="Tracciato_48558" data-name="Tracciato 48558" d="M107.048,110.633l3.58-3.58,3.58,3.58-3.58,3.58ZM85.569,93l2.937-2.939a2.881,2.881,0,0,0,1.555-1.552L93,85.571l15.426,15.438L101,108.432ZM31.161,77.122a32.539,32.539,0,1,1,22.977,9.5,32.538,32.538,0,0,1-22.977-9.5m-4.128-50.08A38.326,38.326,0,0,0,79.092,83.226l4,4-3.716,3.716a2.915,2.915,0,0,0,0,4.117l19.558,19.562a2.893,2.893,0,0,0,3.975.124l5.656,5.654a2.919,2.919,0,0,0,4.126,0l7.706-7.7a2.919,2.919,0,0,0,0-4.126l-5.656-5.654a2.91,2.91,0,0,0-.122-3.977L95.058,79.381a2.915,2.915,0,0,0-4.124,0l0,0L87.22,83.1l-4-4A38.326,38.326,0,0,0,27.037,27.04" transform="translate(12.5 12.495)" fill="#0f5db0"/>
    <path id="Tracciato_48559" data-name="Tracciato 48559" d="M65.382,29.782a2.918,2.918,0,0,0,0,4.128l9.882,9.88-9.882,9.882A2.919,2.919,0,0,0,69.51,57.8L81.456,45.854a2.917,2.917,0,0,0,0-4.126l0,0L69.51,29.782a2.917,2.917,0,0,0-4.126,0l0,0" transform="translate(50.971 22.85)" fill="#0f5db0"/>
    <path id="Tracciato_48560" data-name="Tracciato 48560" d="M43.617,0a2.913,2.913,0,0,0-2.058.854L30.1,12.309a2.918,2.918,0,0,0,3.918,4.324,2.6,2.6,0,0,0,.2-.2l9.4-9.39L53,16.431A2.919,2.919,0,0,0,57.131,12.3L45.675.854A2.913,2.913,0,0,0,43.617,0" transform="translate(23.022 -0.001)" fill="#0f5db0"/>
    <path id="Tracciato_48561" data-name="Tracciato 48561" d="M12.9,29.7.854,41.741a2.918,2.918,0,0,0,0,4.128L12.9,57.917a2.918,2.918,0,0,0,4.126-4.128L7.046,43.805l9.981-9.977A2.919,2.919,0,0,0,12.9,29.7" transform="translate(-0.001 22.835)" fill="#0f5db0"/>
    <path id="Tracciato_48562" data-name="Tracciato 48562" d="M53.72,65.393l-9.9,9.9-9.9-9.9A2.919,2.919,0,1,0,29.7,69.427c.03.032.061.063.093.093L41.756,81.483a2.919,2.919,0,0,0,4.126,0L57.847,69.521A2.919,2.919,0,0,0,53.813,65.3c-.032.03-.063.061-.093.093" transform="translate(22.821 50.942)" fill="#0f5db0"/>
    <path id="Tracciato_48563" data-name="Tracciato 48563" d="M26.743,29.933a2.919,2.919,0,0,0,4.128,4.126,21.62,21.62,0,0,1,30.543,0,2.918,2.918,0,1,0,4.128-4.126,27.466,27.466,0,0,0-38.8,0" transform="translate(20.499 17.307)" fill="#0f5db0"/>
    <path id="Tracciato_48564" data-name="Tracciato 48564" d="M23.15,32.378l-.156.4a2.918,2.918,0,1,0,5.443,2.1l.138-.347a2.919,2.919,0,0,0-5.375-2.28c-.018.041-.034.081-.048.122" transform="translate(18.008 24.074)" fill="#0f5db0"/>
  </g>
</svg>
