<?xml version="1.0" encoding="utf-8"?>
<!-- Generator: Adobe Illustrator 26.5.0, SVG Export Plug-In . SVG Version: 6.00 Build 0)  -->
<svg version="1.1" id="Livello_1" xmlns="http://www.w3.org/2000/svg" xmlns:xlink="http://www.w3.org/1999/xlink" x="0px" y="0px"
	 viewBox="0 0 407 403" style="enable-background:new 0 0 407 403;" xml:space="preserve">
<style type="text/css">
	.st0{fill:#FFFFFF;}
</style>
<g id="ax8u3Q.tif">
	<g>
		<path class="st0" d="M129.7,64c51.5-17.8,102.8-35.5,154.2-53.3c9.1-3.1,18.2-6.3,27.3-9.4c8.5-2.8,13.6-0.4,17,8
			c5.1,12.8,10.3,25.6,15.2,38.5c5.1,13.6,4,27.5,1.5,41.4c-2.5,13.9-3.8,27.8,0.7,41.4c1.9,5.8,5.3,11.5,9.1,16.3
			c14.4,18.7,29.3,37,43.9,55.5c1.9,2.5,3.3,5.4,4.7,8.2c5.1,10,4.8,16.5-3.2,24.5c-5.7,5.7-12.8,9.9-19.4,14.6
			c-3.4,2.4-7.4,4-10.5,6.6c-6.6,5.4-7.5,11.6-3.4,19c1.2,2.2,2.5,4.3,3.5,6.6c3.5,8.4,0.4,16-7.9,19.7c-1,0.5-2.1,1-3.4,1.6
			c1.9,2.8,3.8,5.3,5.2,8.1c2.7,5.1,2.1,8.4-2,12.5c-1.3,1.3-2.7,2.5-4,3.7c-8.3,7.7-10.5,17.3-6.6,28.2c3,8.3,3.8,16.8,2.1,25.5
			c-2.9,15.3-14.9,23.7-30.3,20.9c-12.9-2.3-25.8-4.9-38.6-7.7c-31.1-6.6-62.1-13.4-92.8-20c72.6-47.5,105-112.5,78.3-197.6
			C249.1,110,198.4,74.9,129.7,64z"/>
		<path class="st0" d="M120,234.1c3.9,0,7.7-0.1,11.5,0c14.4,0.3,28.9,0,43.3,1c18,1.4,28.7,11.9,32.5,29.3
			c4.5,20.4,4.6,40.9-0.6,61.2c-4.9,19.2-17.1,29.1-36.8,29.8c-15.4,0.6-30.9,0.2-46.4,0.3c-3,0-4.1-1.1-4.1-4.1
			c0.1-38.2,0.1-76.5,0.1-114.7C119.5,236.2,119.7,235.4,120,234.1z M138.1,294.3c0,13.3,0.1,26.6-0.1,39.9c0,4,1.3,5.8,5.5,5.6
			c6.1-0.2,12.3,0.1,18.5-0.1c14-0.4,22.5-6.2,25.8-19.1c4.7-17.8,4.5-35.9,0-53.8c-2.5-10-9.6-15.4-19.8-16.2
			c-7.9-0.6-15.9-0.4-23.9-0.8c-4.5-0.2-6.2,1.4-6.1,6C138.2,268.7,138.1,281.5,138.1,294.3z"/>
		<path class="st0" d="M209.8,200.3c0.5,0.7,0.7,0.8,0.7,1c1.7,12.8,1.8,13.4-11,14.5c-12.3,1.1-24.9,1.9-37.2,0.9
			c-12.3-1-20-9.2-23.2-21c-4.4-16.2-4.6-32.6,0.2-48.7c3.9-13.3,12.7-22,26.7-23.6c7.8-0.9,16-0.8,23.7,0.8
			c14,2.9,22.1,13.6,23.8,29.7c0.7,6.6,0.1,13.3,0,19.9c0,3.4-1.9,4.4-5.1,4.4c-15.8-0.1-31.6,0.1-47.4-0.1c-4.8-0.1-6,1.6-5.4,6.2
			c1.5,10.8,7.4,17,18.4,17.2c10.1,0.2,20.3-0.4,30.4-0.7C206.2,200.5,208,200.4,209.8,200.3z M175,163.5
			C175,163.5,175,163.5,175,163.5c5.5,0,11,0.2,16.4-0.1c1.3-0.1,3.4-1.1,3.7-2.1c3-9.8-4.4-21.6-14.2-23.3
			c-15.5-2.6-25.7,6-25.8,21.7c0,2.9,1.3,3.8,3.9,3.8C164.3,163.4,169.6,163.5,175,163.5z"/>
		<path class="st0" d="M82.1,107.2c-9.4-0.8-18.1-1.5-26.9-2.1c-2.8-0.2-5.7-0.1-8.5,0c-13.6,0.5-21.4,6.6-24.1,20.1
			c-3.8,18.4-3.7,37.1-0.1,55.5c2.8,14.3,10.8,20.2,26.4,20.4c5.5,0.1,11-0.4,16.4-0.8c5.3-0.4,10.6-1.1,16.6-1.7
			c0.3,4.5,0.7,8.9,0.6,13.3c0,1-1.6,2.6-2.6,2.8c-15.6,3-31.2,4.8-47.1,2.2C18.3,214.5,8.5,206.3,4.8,192
			C-2,166-2.1,139.7,4.6,113.6c4.1-15.9,15.6-23.2,31.2-25.2c14.7-1.9,29.2,0.2,43.6,3c2.6,0.5,3.7,1.7,3.4,4.4
			C82.5,99.6,82.3,103.3,82.1,107.2z"/>
		<path class="st0" d="M80,234.4c6.4,0,12.2,0,18.4,0c0.1,2.2,0.3,4.2,0.3,6.1c0,36.5,0,73.1,0.1,109.6c0,4.2-1.1,6.1-5.6,5.8
			c-4.3-0.3-8.6-0.1-13.2-0.1C80,315.2,80,275,80,234.4z"/>
		<path class="st0" d="M99.9,124.6c6.3,0,12.2,0,18.5,0c0.1,2,0.3,3.8,0.3,5.6c0,26.6-0.1,53.2,0.1,79.8c0,4.9-1.5,6.5-6.2,6.1
			c-4.1-0.4-8.2-0.1-12.7-0.1C99.9,185.1,99.9,155,99.9,124.6z"/>
		<path class="st0" d="M99.6,106.6c0-5.7-0.2-11.2,0.1-16.6c0.1-1,2-2.5,3.2-2.6c4.1-0.3,8.3-0.4,12.4,0c1.2,0.1,2.3,2,3.3,3.1
			c0.2,0.2,0,0.6,0,1C119.5,108.1,118.4,109,99.6,106.6z"/>
		<path class="st0" d="M138.1,294.3c0-12.8,0.1-25.6-0.1-38.4c-0.1-4.6,1.7-6.2,6.1-6c8,0.4,16,0.2,23.9,0.8
			c10.2,0.8,17.2,6.2,19.8,16.2c4.5,17.9,4.7,35.9,0,53.8c-3.4,12.9-11.8,18.7-25.8,19.1c-6.1,0.2-12.3-0.1-18.5,0.1
			c-4.2,0.2-5.5-1.6-5.5-5.6C138.2,320.9,138.1,307.6,138.1,294.3z"/>
		<path class="st0" d="M175,163.5c-5.3,0-10.6-0.1-16,0c-2.7,0-3.9-0.9-3.9-3.8c0.1-15.7,10.3-24.3,25.8-21.7
			c9.9,1.7,17.2,13.5,14.2,23.3c-0.3,1-2.4,2-3.7,2.1C185.9,163.7,180.4,163.5,175,163.5C175,163.5,175,163.5,175,163.5z"/>
	</g>
</g>
</svg>
