<?xml version="1.0" encoding="UTF-8"?><svg id="uuid-137d5e8d-d385-423b-b123-86b51a28bb13" xmlns="http://www.w3.org/2000/svg" viewBox="0 0 79 77"><defs><style>.uuid-62c2b02d-6d5b-458b-827a-b4687cccb384{fill:#06c;}</style></defs><g id="uuid-61836e11-2ab9-495d-9681-7d63b58d65af" transform="translate(0 0)"><g id="uuid-29770e23-4154-4be6-a573-941c38ffdd5f"><path id="uuid-5fc532bf-ac77-4236-ae9d-c4750f1d69ed" class="uuid-62c2b02d-6d5b-458b-827a-b4687cccb384" d="M52.05,46.16h-4.06v6.61h4.13c.87,.07,1.72-.26,2.32-.9,.54-.69,.81-1.55,.77-2.43,.05-.87-.25-1.73-.81-2.39-.62-.62-1.47-.94-2.34-.88"/><path id="uuid-361abd83-21e0-4f0d-901a-be4d386acc33" class="uuid-62c2b02d-6d5b-458b-827a-b4687cccb384" d="M30.19,18.36l-2.14,10.02h5.58l-2.14-10.02h-1.3Z"/><path id="uuid-8ded874c-490e-4f85-84ac-8f49903c0343" class="uuid-62c2b02d-6d5b-458b-827a-b4687cccb384" d="M30.5,46.16h-3.56v7.56h3.56c2.22,0,3.29-1.29,3.29-3.94,.09-1-.19-1.99-.8-2.79-.68-.61-1.58-.91-2.49-.83"/><path id="uuid-7b7aa3da-2894-4b11-ad5e-d516a1328ec4" class="uuid-62c2b02d-6d5b-458b-827a-b4687cccb384" d="M16.65,18.57c-.77-.02-1.51,.28-2.04,.83-.53,.55-.82,1.29-.8,2.06-.02,.77,.27,1.52,.81,2.07,.53,.56,1.27,.86,2.05,.84,.76,.02,1.5-.28,2.02-.83,.52-.56,.8-1.29,.78-2.05,.02-.76-.26-1.5-.78-2.07-.52-.57-1.26-.88-2.03-.85m1.83,4.78c-.47,.5-1.14,.77-1.82,.74-.7,.02-1.37-.25-1.85-.76-.49-.51-.75-1.18-.73-1.88-.02-.7,.24-1.37,.72-1.87,.48-.5,1.15-.77,1.85-.74,.69-.02,1.36,.25,1.83,.76,.47,.51,.72,1.19,.7,1.88,.02,.69-.23,1.36-.7,1.86"/><path id="uuid-90c4c1e9-1f0e-4542-b84f-745e990bd969" class="uuid-62c2b02d-6d5b-458b-827a-b4687cccb384" d="M0,77H79V0H0V77ZM18.68,23.54c-.53,.55-1.26,.85-2.02,.83-.77,.02-1.51-.29-2.05-.84-.53-.56-.82-1.3-.81-2.07-.02-.77,.27-1.51,.8-2.06,.54-.55,1.28-.85,2.04-.83,.77-.02,1.51,.29,2.03,.85,.52,.56,.79,1.3,.78,2.07,.02,.76-.26,1.5-.78,2.05m17.99,32.16c-1.69,1.48-3.9,2.23-6.14,2.07h-3.59v6.32h-4.91v-21.98h8.5c5.46,0,8.23,2.58,8.23,7.67,.14,2.18-.62,4.32-2.1,5.92m-1.28-19.29l-.86-3.92h-7.36l-.86,3.92h-4.7l4.95-21.98h8.59l4.94,21.98h-4.69Zm24.79,27.68h-5.36l-2.64-7.28h-4.19v7.28h-4.91v-21.98h8.97c5.42,0,8.16,2.45,8.16,7.29,.14,2.55-1.13,4.98-3.31,6.31l3.27,8.38Zm.16-27.68h-7.49l-.03-.1-5.39-17.77h-.07v17.87h-4.69V14.43h7.68l5.23,17.87h.07V14.43h4.69v21.98Z"/></g></g></svg>