<?xml version="1.0" encoding="UTF-8"?><svg id="uuid-5b07e898-b317-4034-ac52-9d4b10e0e2fb" xmlns="http://www.w3.org/2000/svg" viewBox="0 0 79 77"><defs><style>.uuid-4a7e4baa-1564-4ac9-a50e-55e2cbead54f{fill:#06c;}.uuid-b062382d-e930-4e39-b764-57b0004574a3{fill:#fff;}</style></defs><g id="uuid-d4374e47-f654-470d-97cd-d0804fe7e186" transform="translate(0 0)"><g id="uuid-a2580ae1-f376-4f2b-8b06-817643828e1f"><rect class="uuid-4a7e4baa-1564-4ac9-a50e-55e2cbead54f" x="9.09" y="10.27" width="62.09" height="56.64"/><path id="uuid-25bd916e-7057-4ad0-b58e-5786027eb09f" class="uuid-b062382d-e930-4e39-b764-57b0004574a3" d="M52.05,46.16h-4.06v6.61h4.13c.87,.07,1.72-.26,2.32-.9,.54-.69,.81-1.55,.77-2.43,.05-.87-.25-1.73-.81-2.39-.62-.62-1.47-.94-2.34-.88"/><path id="uuid-e70c520c-6323-4518-b970-9edf6b00e265" class="uuid-b062382d-e930-4e39-b764-57b0004574a3" d="M30.19,18.36l-2.14,10.02h5.58l-2.14-10.02h-1.3Z"/><path id="uuid-63fb7d27-8393-4f73-81b3-a14124f8ce0e" class="uuid-b062382d-e930-4e39-b764-57b0004574a3" d="M30.5,46.16h-3.56v7.56h3.56c2.22,0,3.29-1.29,3.29-3.94,.09-1-.19-1.99-.8-2.79-.68-.61-1.58-.91-2.49-.83"/><path id="uuid-0a2182f4-5df7-4891-a034-be35e5bc7022" class="uuid-b062382d-e930-4e39-b764-57b0004574a3" d="M16.65,18.57c-.77-.02-1.51,.28-2.04,.83-.53,.55-.82,1.29-.8,2.06-.02,.77,.27,1.52,.81,2.07,.53,.56,1.27,.86,2.05,.84,.76,.02,1.5-.28,2.02-.83,.52-.56,.8-1.29,.78-2.05,.02-.76-.26-1.5-.78-2.07-.52-.57-1.26-.88-2.03-.85m1.83,4.78c-.47,.5-1.14,.77-1.82,.74-.7,.02-1.37-.25-1.85-.76-.49-.51-.75-1.18-.73-1.88-.02-.7,.24-1.37,.72-1.87,.48-.5,1.15-.77,1.85-.74,.69-.02,1.36,.25,1.83,.76,.47,.51,.72,1.19,.7,1.88,.02,.69-.23,1.36-.7,1.86"/><path id="uuid-c9cf1386-0fd6-4f07-9305-afd6b8c60e66" class="uuid-b062382d-e930-4e39-b764-57b0004574a3" d="M0,77H79V0H0V77ZM18.68,23.54c-.53,.55-1.26,.85-2.02,.83-.77,.02-1.51-.29-2.05-.84-.53-.56-.82-1.3-.81-2.07-.02-.77,.27-1.51,.8-2.06,.54-.55,1.28-.85,2.04-.83,.77-.02,1.51,.29,2.03,.85,.52,.56,.79,1.3,.78,2.07,.02,.76-.26,1.5-.78,2.05m17.99,32.16c-1.69,1.48-3.9,2.23-6.14,2.07h-3.59v6.32h-4.91v-21.98h8.5c5.46,0,8.23,2.58,8.23,7.67,.14,2.18-.62,4.32-2.1,5.92m-1.28-19.29l-.86-3.92h-7.36l-.86,3.92h-4.7l4.95-21.98h8.59l4.94,21.98h-4.69Zm24.79,27.68h-5.36l-2.64-7.28h-4.19v7.28h-4.91v-21.98h8.97c5.42,0,8.16,2.45,8.16,7.29,.14,2.55-1.13,4.98-3.31,6.31l3.27,8.38Zm.16-27.68h-7.49l-.03-.1-5.39-17.77h-.07v17.87h-4.69V14.43h7.68l5.23,17.87h.07V14.43h4.69v21.98Z"/></g></g></svg>