<?xml version="1.0" encoding="UTF-8"?><svg id="uuid-8d3e9065-f4d0-405b-a2e2-0f91248dd84e" xmlns="http://www.w3.org/2000/svg" xmlns:xlink="http://www.w3.org/1999/xlink" viewBox="0 0 172.26 52.93"><defs><style>.uuid-82ff25a5-ce8e-4c9c-a6d7-aac5cf3de5ed{fill:none;}.uuid-b007621b-f8c2-4f57-8596-678c1a4211bf{clip-path:url(#uuid-deb0ce82-1400-4485-b75b-bbf185fb39e9);}.uuid-011b0dd8-37d5-428f-bd78-47b1caf8f89e{fill:#f2f3ed;}.uuid-bac61fbf-4759-4c57-a297-c783a1ea786e{fill:#fff;}.uuid-cf650bc4-bf30-4b26-9831-c9191b1c3b5b{fill:#c1091e;}.uuid-3ec11d47-5d90-444a-8897-070adeaa7400{fill:#257b33;}.uuid-a5061646-0bd5-4423-b1c9-5ced0b926f5a{clip-path:url(#uuid-63c3f48f-ccec-4645-945b-7d9ed172c885);}</style><clipPath id="uuid-63c3f48f-ccec-4645-945b-7d9ed172c885"><rect class="uuid-82ff25a5-ce8e-4c9c-a6d7-aac5cf3de5ed" width="172.26" height="52.93"/></clipPath><clipPath id="uuid-deb0ce82-1400-4485-b75b-bbf185fb39e9"><rect class="uuid-82ff25a5-ce8e-4c9c-a6d7-aac5cf3de5ed" width="172.26" height="52.93"/></clipPath></defs><g id="uuid-ef909ab1-0fb8-4e79-b546-b56233658bda"><g id="uuid-ac58002a-3ce5-4aae-96ff-f89f14552932"><g class="uuid-a5061646-0bd5-4423-b1c9-5ced0b926f5a"><g id="uuid-67c5e0b1-bb52-4ef9-acd2-0edc592c6998"><path id="uuid-63e0ba59-4eb9-4b37-a4e7-a52584401a7c" class="uuid-3ec11d47-5d90-444a-8897-070adeaa7400" d="M156.62,34.41c-.47,.18-.92,.38-1.37,.59-.64,.28-1.28,.56-1.91,.84,.43-.23,.85-.47,1.28-.71,2.57-1.45,.32-5.08-2.27-3.89-.8,.37-1.58,.79-2.33,1.25-.41,.21-.82,.41-1.23,.61-.83-.08-1.66-.06-2.48,.04-.29-.11-.59-.15-.9-.12,2.17-1.58,.01-4.93-2.5-3.74-1.73,.82-3.4,1.76-5,2.8-1.94,1.04-3.9,2.05-5.85,3.07-3.17,1.66-5.56,4.45-8.9,5.87-2.35,1-.85,4.12,1.35,4.09-1.11,2.06,1.98,4.14,3.69,2.47,1.85-1.77,3.89-3.34,6.08-4.66-.52,.79-1,1.61-1.43,2.46-.8,1.58,.54,4.08,2.54,3.31,2.54-.98,5.03-2.05,7.51-3.16,.08,.17,.17,.35,.27,.52,.63,1.07,2.01,1.43,3.08,.81,3.51-2.22,6.41-5.59,10.12-7.49,.66-.29,1.31-.59,1.98-.87,2.34-1.01,.65-5.01-1.74-4.11"/><path id="uuid-f29c6768-31d6-4259-b1d5-793320a8e765" class="uuid-011b0dd8-37d5-428f-bd78-47b1caf8f89e" d="M166.05,38.65c.03-.96-.48-1.86-1.31-2.33,.7-.33,1.36-.72,1.98-1.18,1.91-1.43,.89-4.94-1.74-4.11-2.37,.78-4.65,1.8-6.8,3.06-1.97,.55-3.86,1.36-5.62,2.41-4.4,3.02-8.55,6.39-12.42,10.06-2.15,1.96,1.04,5.13,3.18,3.18,.4-.36,.8-.72,1.2-1.08,.28,.02,.56-.02,.83-.12,1.55-.52,3.08-1.08,4.61-1.66,.54,.6,1.38,.83,2.16,.6,.61-.18,1.21-.39,1.8-.61-.08,1.63,1.74,3.33,3.36,2.16,3.22-2.33,6.61-4.41,10.14-6.23,2.28-1.16,.78-4.32-1.38-4.15"/><path id="uuid-0c2ab97c-cc72-4b66-9c2b-af1e5543b071" class="uuid-cf650bc4-bf30-4b26-9831-c9191b1c3b5b" d="M170.03,47.86c-.26,0-.52,.02-.78,.03,.14-.18,.28-.36,.41-.56,.03-.05,.06-.1,.09-.15,.3-.08,.59-.15,.88-.23,2.88-.8,1.59-4.73-1.2-4.34-5.28,.73-11.09,1.87-15.83,4.58-.98,.45-1.94,.96-2.86,1.52-1.06,.69-1.36,2.11-.66,3.17,.48,.73,1.34,1.13,2.21,1.02,.24,0,.49-.02,.72-.08,1.97-.49,3.91-1.1,5.85-1.72,.28,.93,1.13,1.59,2.1,1.62,3.03,.3,6.05-.3,9.08-.36,2.9-.05,2.9-4.56,0-4.5"/></g></g></g><path id="uuid-407a5dc8-5145-4436-994f-895650f2659f" class="uuid-bac61fbf-4759-4c57-a297-c783a1ea786e" d="M18.72,6.67l6.46,17.36H12.26L18.72,6.67ZM14.7,0L0,38.9H6.81l3.47-9.26H27.32l3.54,9.26h8.53L24.53,0H14.7Z"/><g id="uuid-d1e015f1-b121-4a08-be77-3feadf4cb813"><g class="uuid-b007621b-f8c2-4f57-8596-678c1a4211bf"><g id="uuid-02298203-0a94-4c91-862b-e1d11b635476"><path id="uuid-c65ddf35-a83e-4c86-bc49-0e4984dc4186" class="uuid-bac61fbf-4759-4c57-a297-c783a1ea786e" d="M71.62,38.96h-7.76L47.02,14.07c-.26-.38-.68-1-1.27-1.85-.26-.38-.66-.98-1.2-1.8v28.55h-6.44V0h8.84l15.53,22.95c.13,.19,1.08,1.59,2.83,4.2V0h6.3V38.96Z"/><path id="uuid-b3752d94-4015-4ce9-8d1f-ec7caa08eba3" class="uuid-bac61fbf-4759-4c57-a297-c783a1ea786e" d="M82.71,38.96h-8V0h18.17c5.18,0,9.02,1.15,11.52,3.44,2.38,2.03,3.75,4.99,3.75,8.12,.09,3.36-1.42,6.57-4.06,8.65-2.94,2.28-6.58,3.46-10.3,3.31h-11.08v15.44Zm0-21.47h9.46c2.01,.14,4.01-.43,5.65-1.6,1.28-1.03,2.01-2.61,1.95-4.25,.02-1.56-.64-3.06-1.8-4.11-1.2-1.14-3.37-1.72-6.52-1.71h-8.74v11.67Z"/><path id="uuid-ca36be6d-c9e7-4306-b1ce-9a9e46f193d7" class="uuid-bac61fbf-4759-4c57-a297-c783a1ea786e" d="M142.5,38.96h-8.45l-6.89-16.01h-11.24v16.01h-7.99V0h19.23c5.35,0,9.28,1.06,11.79,3.18,2.46,2.01,3.86,5.05,3.77,8.23,0,5.01-2.66,8.45-7.99,10.33l7.77,17.21Zm-26.58-21.64h9.94c2.88,0,5.03-.53,6.43-1.6,1.39-1.03,2.18-2.67,2.11-4.4,.03-1.64-.74-3.2-2.08-4.15-1.71-1.15-3.76-1.71-5.82-1.58h-10.59v11.74Z"/></g></g></g></g></svg>