<?xml version="1.0" encoding="utf-8"?>
<!-- Generator: Adobe Illustrator 26.5.0, SVG Export Plug-In . SVG Version: 6.00 Build 0)  -->
<svg version="1.1" id="Livello_1" xmlns="http://www.w3.org/2000/svg" xmlns:xlink="http://www.w3.org/1999/xlink" x="0px" y="0px"
	 viewBox="0 0 172.3 52.9" style="enable-background:new 0 0 172.3 52.9;" xml:space="preserve">
<style type="text/css">
	.st0{clip-path:url(#SVGID_00000114056360691975085480000009429243147210869381_);}
	.st1{fill:#257B33;}
	.st2{fill:#F2F3ED;}
	.st3{fill:#C1091E;}
	.st4{fill:#0066CC;}
	.st5{clip-path:url(#SVGID_00000040563326133092254570000008092439625370226606_);}
</style>
<g id="Raggruppa_14713" transform="translate(0 0)">
	<g id="Raggruppa_7" transform="translate(0 0)">
		<g>
			<defs>
				<rect id="SVGID_1_" width="172.3" height="52.9"/>
			</defs>
			<clipPath id="SVGID_00000072278631216590333630000010068961652813598088_">
				<use xlink:href="#SVGID_1_"  style="overflow:visible;"/>
			</clipPath>
			<g id="Raggruppa_6" style="clip-path:url(#SVGID_00000072278631216590333630000010068961652813598088_);">
				<path id="Tracciato_43" class="st1" d="M156.6,34.4c-0.5,0.2-0.9,0.4-1.4,0.6c-0.6,0.3-1.3,0.6-1.9,0.8c0.4-0.2,0.9-0.5,1.3-0.7
					c2.6-1.4,0.3-5.1-2.3-3.9c-0.8,0.4-1.6,0.8-2.3,1.3c-0.4,0.2-0.8,0.4-1.2,0.6c-0.8-0.1-1.7-0.1-2.5,0c-0.3-0.1-0.6-0.2-0.9-0.1
					c2.2-1.6,0-4.9-2.5-3.7c-1.7,0.8-3.4,1.8-5,2.8c-1.9,1-3.9,2.1-5.9,3.1c-3.2,1.7-5.6,4.5-8.9,5.9c-2.3,1-0.8,4.1,1.3,4.1
					c-1.1,2.1,2,4.1,3.7,2.5c1.8-1.8,3.9-3.3,6.1-4.7c-0.5,0.8-1,1.6-1.4,2.5c-0.8,1.6,0.5,4.1,2.5,3.3c2.5-1,5-2,7.5-3.2
					c0.1,0.2,0.2,0.3,0.3,0.5c0.6,1.1,2,1.4,3.1,0.8c3.5-2.2,6.4-5.6,10.1-7.5c0.7-0.3,1.3-0.6,2-0.9
					C160.7,37.5,159,33.5,156.6,34.4"/>
				<path id="Tracciato_44" class="st2" d="M166.1,38.6c0-1-0.5-1.9-1.3-2.3c0.7-0.3,1.4-0.7,2-1.2c1.9-1.4,0.9-4.9-1.7-4.1
					c-2.4,0.8-4.6,1.8-6.8,3.1c-2,0.6-3.9,1.4-5.6,2.4c-4.4,3-8.6,6.4-12.4,10.1c-2.2,2,1,5.1,3.2,3.2c0.4-0.4,0.8-0.7,1.2-1.1
					c0.3,0,0.6,0,0.8-0.1c1.5-0.5,3.1-1.1,4.6-1.7c0.5,0.6,1.4,0.8,2.2,0.6c0.6-0.2,1.2-0.4,1.8-0.6c-0.1,1.6,1.7,3.3,3.4,2.2
					c3.2-2.3,6.6-4.4,10.1-6.2C169.7,41.6,168.2,38.5,166.1,38.6"/>
				<path id="Tracciato_45" class="st3" d="M170,47.9c-0.3,0-0.5,0-0.8,0c0.1-0.2,0.3-0.4,0.4-0.6c0-0.1,0.1-0.1,0.1-0.2
					c0.3-0.1,0.6-0.2,0.9-0.2c2.9-0.8,1.6-4.7-1.2-4.3c-5.3,0.7-11.1,1.9-15.8,4.6c-1,0.4-1.9,1-2.9,1.5c-1.1,0.7-1.4,2.1-0.7,3.2
					c0.5,0.7,1.3,1.1,2.2,1c0.2,0,0.5,0,0.7-0.1c2-0.5,3.9-1.1,5.8-1.7c0.3,0.9,1.1,1.6,2.1,1.6c3,0.3,6-0.3,9.1-0.4
					C172.9,52.3,172.9,47.8,170,47.9"/>
			</g>
		</g>
	</g>
	<path id="Tracciato_46" class="st4" d="M18.7,6.7L25.2,24H12.3L18.7,6.7z M14.7,0L0,38.9h6.8l3.5-9.3h17l3.5,9.3h8.5L24.5,0H14.7z"
		/>
	<g id="Raggruppa_9" transform="translate(0 0)">
		<g>
			<defs>
				<rect id="SVGID_00000010273234081959948300000008229804973846198932_" width="172.3" height="52.9"/>
			</defs>
			<clipPath id="SVGID_00000154427701716057007670000007915600176430876572_">
				<use xlink:href="#SVGID_00000010273234081959948300000008229804973846198932_"  style="overflow:visible;"/>
			</clipPath>
			<g id="Raggruppa_8" style="clip-path:url(#SVGID_00000154427701716057007670000007915600176430876572_);">
				<path id="Tracciato_47" class="st4" d="M71.6,39h-7.8L47,14.1c-0.3-0.4-0.7-1-1.3-1.9c-0.3-0.4-0.7-1-1.2-1.8V39h-6.4V0H47
					l15.5,22.9c0.1,0.2,1.1,1.6,2.8,4.2V0h6.3L71.6,39z"/>
				<path id="Tracciato_48" class="st4" d="M82.7,39h-8V0h18.2c5.2,0,9,1.1,11.5,3.4c2.4,2,3.8,5,3.8,8.1c0.1,3.4-1.4,6.6-4.1,8.6
					c-2.9,2.3-6.6,3.5-10.3,3.3H82.7V39z M82.7,17.5h9.5c2,0.1,4-0.4,5.6-1.6c1.3-1,2-2.6,1.9-4.3c0-1.6-0.6-3.1-1.8-4.1
					c-1.2-1.1-3.4-1.7-6.5-1.7h-8.7L82.7,17.5z"/>
				<path id="Tracciato_49" class="st4" d="M142.5,39h-8.4l-6.9-16h-11.2v16h-8V0h19.2c5.4,0,9.3,1.1,11.8,3.2
					c2.5,2,3.9,5.1,3.8,8.2c0,5-2.7,8.4-8,10.3L142.5,39z M115.9,17.3h9.9c2.9,0,5-0.5,6.4-1.6c1.4-1,2.2-2.7,2.1-4.4
					c0-1.6-0.7-3.2-2.1-4.2c-1.7-1.2-3.8-1.7-5.8-1.6h-10.6V17.3z"/>
			</g>
		</g>
	</g>
</g>
</svg>
