<?xml version="1.0" encoding="utf-8"?>
<!-- Generator: Adobe Illustrator 26.0.3, SVG Export Plug-In . SVG Version: 6.00 Build 0)  -->
<svg version="1.1" id="Livello_1" xmlns="http://www.w3.org/2000/svg" xmlns:xlink="http://www.w3.org/1999/xlink" x="0px" y="0px"
	 viewBox="0 0 97.39 78.19" style="enable-background:new 0 0 97.39 78.19;" xml:space="preserve">
<style type="text/css">
	.st0{fill:#FFFFFF;}
</style>
<g>
	<path class="st0" d="M33.92,76.69V16.75h16.11V76.8H33.92V76.69z M97.17,30.4H82.45v24.64c0,2.45,0.11,4.05,0.21,5.12
		c0.11,0.96,0.53,1.81,1.28,2.56s1.92,1.07,3.52,1.07l9.17-0.21l0.75,12.8c-5.33,1.17-9.49,1.81-12.27,1.81
		c-7.25,0-12.16-1.6-14.72-4.91c-2.67-3.2-3.95-9.17-3.95-17.92V0h16.11v16.64h14.72V30.4H97.17z M9.71,34.99
		c-2.77,0-5.12-0.96-6.93-2.88S0,27.84,0,25.07s0.96-5.12,2.67-7.04c1.81-1.92,4.16-2.77,6.93-2.77s5.12,0.96,6.93,2.88
		s2.67,4.27,2.67,7.15s-0.85,5.12-2.67,7.04C14.83,34.03,12.59,34.99,9.71,34.99z"/>
</g>
</svg>
